<svg id="Capa_1" data-name="Capa 1" xmlns="http://www.w3.org/2000/svg" viewBox="0 0 318.92 145.83"><defs><style>.cls-1{fill:#e7bfb7;}.cls-2{fill:#c64939;}</style></defs><path class="cls-1" d="M71.73,81c.07-.2.14-.39.2-.6a.88.88,0,0,0,0-.15l0-.15,0-.15a.88.88,0,0,1,0-.15s0-.1,0-.15l0-.15,0-.15s0-.1,0-.15,0-.1,0-.15a.88.88,0,0,0,0-.15c0-.05,0-.1,0-.15s0-.1.05-.15a.88.88,0,0,1,0-.15s0-.1,0-.15a.88.88,0,0,0,.05-.15c0-.05,0-.11,0-.16l0-.15a.88.88,0,0,1,0-.15s0-.1,0-.15a.88.88,0,0,0,0-.15l0-.15,0-.15a.88.88,0,0,1,.05-.15s0-.1,0-.15a.88.88,0,0,0,0-.15s0-.1.05-.15,0-.1,0-.15a.88.88,0,0,1,0-.15s0-.1,0-.15,0-.1.05-.15l0-.15s0-.11,0-.16,0-.1,0-.15a.88.88,0,0,0,0-.15l0-.15,0-.15a.88.88,0,0,1,0-.15s0-.1,0-.15a.88.88,0,0,0,0-.15l0-.15s0-.1.05-.15a.88.88,0,0,1,0-.15s0-.1,0-.15a.88.88,0,0,0,.05-.15s0-.1,0-.15l0-.15a.88.88,0,0,1,0-.15s0-.1,0-.15a1,1,0,0,0,0-.16s0-.1,0-.15l0-.15a.88.88,0,0,1,.05-.15c0-.05,0-.1,0-.15a.88.88,0,0,0,0-.15s0-.1,0-.15,0-.1.05-.15,0-.1,0-.15a.88.88,0,0,0,0-.15s0-.1.05-.15l0-.15a.88.88,0,0,1,0-.15s0-.1,0-.15a.88.88,0,0,0,0-.15l0-.15,0-.15a.66.66,0,0,1,0-.15l0-.16a.88.88,0,0,0,0-.15l0-.15s0-.1.05-.15a.88.88,0,0,1,0-.15c0-.05,0-.1,0-.15a.88.88,0,0,0,.05-.15s0-.1,0-.15l0-.15a.88.88,0,0,1,0-.15c0-.05,0-.1,0-.15a.88.88,0,0,0,0-.15l0-.15,0-.15a.88.88,0,0,1,0-.15c0-.05,0-.1,0-.15s0-.11,0-.16,0-.1,0-.15a.88.88,0,0,1,.05-.15s0-.1,0-.15a.88.88,0,0,0,0-.15s0-.1.05-.15l0-.15a.88.88,0,0,1,0-.15s0-.1,0-.15a.88.88,0,0,0,0-.15l0-.15,0-.15a.88.88,0,0,1,0-.15s0-.1,0-.15a.88.88,0,0,0,0-.15l0-.15c0-.05,0-.1.05-.15a1.42,1.42,0,0,1,0-.16c2-6.23,3.19-14.66,3.19-25.43,0-28.32-7.54-37.57-17.37-37.57H46.68v.15h0v.15h0v.15h-.05v.15h0v.15h-.05v.16h0v.15h0v.15H46.3v.15h0v.15h0V4h0v.15h0v.15h0v.15H46v.15h0v.15h0v.15h-.05V5h0v.15h0v.15h-.05v.15h0v.15h0v.16h-.05v.15h0v.15h-.05v.15h0v.15h0v.15h0v.15h-.05v.15h0V7h0v.15h-.05v.15h0v.15h-.05v.15h0v.15h0v.15h-.05V8h0v.15h0v.16h0v.15h-.05v.15h0v.15h-.05v.15h0v.15h0v.15h-.05v.15h0v.15h0v.15h-.05v.15h0V10h0v.15h-.05v.15h0v.15h0v.15h-.05v.15h0v.16h0v.15H43.9v.15h0v.15h0v.15h-.05v.15h0v.15h-.05V12h0v.15h0v.15h0v.15h-.05v.15h0v.15h0v.15h-.05V13h0v.15h-.05v.16h0v.15h0v.15h0v.15H43v.15h0v.15h-.05v.15h0v.15h0v.15H42.8v.15h0v.15h0V15h-.05v.15h0v.15h0v.15h-.05v.15h0v.15h0v.16h-.05V16h0v.15h0v.15h0v.15h0v.15h0v.15h-.05v.15h0v.15h0v.15h-.05v.15h0v.15h0v126h8.54v-.15h0v-.15h0v-.15h.05v-.15h0v-.15h0v-.15h.05v-.16h0v-.15h.05v-.15h0V142h0v-.15h0v-.15H51v-.15h0v-.15h.05v-.15h0v-.15h0V141h.05v-.15h0v-.15h0v-.15h.05v-.15h0v-.15h0v-.15h.05v-.16h0v-.15h0v-.15h.05v-.15h0v-.15h0v-.15h0V139h0v-.15h0v-.15h.05v-.15h0v-.15h0v-.15h.05v-.15h0V138h0v-.15h.05v-.15h0v-.15h0v-.16h.05v-.15h0V137h0v-.15h.05v-.15h0v-.15h.05v-.15h0v-.15h0v-.15h0V136h.05v-.15h0v-.15h.05v-.15h0v-.15h0v-.15H53v-.15h0v-.15h0v-.16h0v-.15h.05v-.15h0v-.15h.05v-.15h0V134h0v-.15h.05v-.15h0v-.15h0v-.15h0v-.15h0v-.15h0V133h.05v-.15h0v-.15h0v-.15h.05v-.16h0v-.15h0v-.15H54v-.15h0v-.15h0v-.15h.05v-.15h0v-.15h.05v-.15h0V131h0v-.15h0v-.15h.05v-.15h0v-.15h0v-.15h.05v-.15h0V130h.05v-.16h0v-.15h0v-.15h.05v-.15h0v-.15h0v-.15h0v-.15H55v-.15h0v-.15h.05v-.15h0v-.15h0V94.58h2.13L67.4,143.52h9.54l0-.15H77l0-.15H77l0-.15h.08l0-.15h.08l0-.15h.08l0-.15h.08l0-.16h.08l0-.15h.07l0-.15h.08l0-.15h.08l0-.15h.08l0-.15h.08l0-.15h.08l0-.15h.08l0-.15h.08l0-.15h.08l0-.15h.08l0-.15h.08l0-.15h.08l0-.15h.08l0-.15H78l0-.15H78l0-.15H78l0-.16h.08l0-.15h.08l0-.15h.08l0-.15h.08l0-.15h.08l0-.15h.08l0-.15h.08l0-.15h.08l0-.15h.07l0-.15h.08l0-.15h.08l0-.15h.08l0-.15h.08l0-.15h.08l0-.15h.08l0-.15h.08l0-.15h.08l0-.16h.08l0-.15H79l0-.15H79l0-.15h.08l0-.15h.08l0-.15h.08l0-.15h.08l0-.15h.08l0-.15h.08l0-.15h.08l0-.15h.08l0-.15h.08l0-.15h.08l0-.15h.08l0-.15h.08l0-.15h.08l0-.15h.08l0-.16h.08l0-.15h.08l0-.15h.08l0-.15h.08l0-.15h.08l0-.15H80l0-.15H80l0-.15h.08l0-.15h.08l0-.15h.08l0-.15h.08l0-.15h.08l0-.15h.08l0-.15h.08l0-.15h.08l0-.15h.08l0-.16h.08l0-.15h.08l0-.15h.08l0-.15h.08l0-.15h.08l0-.15h.08l0-.15h.08l0-.15h.08l0-.15h.08l0-.15h.08l0-.15H81l0-.15H81l0-.15h.08l0-.15h.08l0-.15h.08l0-.15h.08l0-.15h.08l0-.16h.08l0-.15h.08l0-.15h.08l0-.15h.08l0-.15h.08l0-.15h.08l0-.15h.08l0-.15h.08l0-.15h.08l0-.15h.08l0-.15h.08ZM61.68,61.07H55.22V35.82h1.62c6.39,0,9.84,5,9.84,19.27,0,1.45-.05,2.8-.12,4.1A7,7,0,0,1,61.68,61.07Z"/><path class="cls-1" d="M149.68,2.46h-.05v.15h0v.15h-.05v.15h0v.15h-.05v.16h-.05v.15h0v.15h-.05v.15h0v.15h-.05V4h0v.15h-.05v.15h0v.15h0v.15h0v.15h-.05v.15h0V5h-.05v.15h0v.15h-.05v.15h-.05v.15h0v.16h-.05v.15h0v.15h-.05v.15h0v.15h-.05v.15h0v.15h0v.15h0V7h-.05v.15h-.05v.15h0v.15h0v.15H148v.15H148v.15h0V8h0v.15h-.05v.16h-.05v.15h0v.15h-.05v.15h0v.15h-.05v.15h0v.15h-.05v.15h-.05v.15h0v.15h0v.15h-.05V10h-.05v.15h0v.15h0v.15h0v.15H147v.15h0v.16h0v.15h0v.15h-.05v.15h0v.15h-.05v.15h0v.15h-.05V12h0v.15h-.05v.15h-.05v.15h0v.15h-.05v.15h0v.15h-.05V13h0v.15h0v.16h0v.15h-.05v.15h0v.15H146v.15h0v.15h-.05v.15h-.05v.15h0v.15h0v.15h-.05v.15h-.05V15h0v.15h-.05v.15h0v.15h-.05v.15h0v.15h-.05v.16h0V16h0v.15h0v.15h-.05v.15h-.05v.15h0v.15h0v.15H145v.15H145v.15h0v.15h-.05v.15h0v83.61c0,3.51-.09,6.58-.25,9.26a3.92,3.92,0,0,1-1.73.39c-3,0-5.53-4-7.18-12.14l-5.53,10v0l0,.11v0l-.06.1V109l-.06.1v0l-.06.1v0l-.06.1v0l0,.1v0l-.06.1v.05l-.06.1v0l-.06.1v0l-.06.1v0l-.05.1v0l-.06.11v0l-.06.11v0l-.06.11v0l-.06.11v0l-.05.11v0l-.06.11v0l-.06.11v0l-.06.1v0l-.05.1v0l0,.1v.05l-.06.1v0l-.06.1v0l-.06.1v0l0,.1v0l-.06.1v.05l-.06.1v0l-.06.1v0l-.06.11v0l-.05.11v0l-.06.11v0l-.06.11v0l-.06.11v0l-.06.11v0l-.05.11v0l-.06.1v0l-.06.1v0l-.06.1v.05l-.06.1v0l0,.1v0l-.06.1v0l-.06.1v0l-.06.1v.05l0,.1v0l-.05.1v0l-.06.11v0l-.06.11v0l-.06.11v0l0,.11v0l-.06.11v0l-.06.11v0l-.06.11v.05l-.06.1v0l-.05.1v0l-.06.1v0l-.06.1v0l-.06.1v.05l-.06.1v0l0,.1v0l-.06.1v0l-.06.1v0l-.06.1V118l-.06.11v0l0,.11v0l-.06.11v0l-.06.11v0l-.06.11v0l-.06.11v0l-.05.1v0l-.06.1v0l-.06.1v.05l-.06.1v0l0,.1v0l0,.1v0l-.06.1v0l-.06.1v.05l-.06.1v0l0,.1v0l-.06.11v0l-.06.11v0l-.06.11v0l-.06.11v0l0,.11v0l-.06.11v0l-.06.11v.05l-.06.1v0l-.06.1v0l0,.1v0l-.06.1v0l-.06.1v.05l-.06.1v0l-.06.1v0l0,.1v0l-.06.1v0l-.06.1V123l-.06.11v0l0,.11v0l-.05.11v0l-.06.11v0l-.06.11v0l-.06.11c2.87,15,7.25,22,13.43,22,5.13,0,8.8-4.78,11.18-12.53,0-.05,0-.1,0-.15a.88.88,0,0,0,0-.15c0-.05,0-.1.05-.15a.88.88,0,0,1,.05-.15s0-.1,0-.15a.88.88,0,0,0,0-.15,1,1,0,0,0,.05-.16l.05-.14a1,1,0,0,1,0-.16c0-.05,0-.09,0-.15a3090632051227.78,3090632051227.78,0,0,1,.1-.3l0-.15a.88.88,0,0,1,.05-.15c0-.05,0-.1,0-.15a.88.88,0,0,0,.05-.15l0-.15c0-.05,0-.1.05-.15a.88.88,0,0,1,.05-.15c0-.05,0-.1,0-.15a.88.88,0,0,0,0-.15s0-.1.05-.15,0-.1.05-.15a.88.88,0,0,1,0-.15c0-.05,0-.1,0-.15a1,1,0,0,0,0-.16s0-.1.05-.15l0-.15a.88.88,0,0,1,.05-.15c0-.05,0-.1,0-.15a.88.88,0,0,0,.05-.15l0-.15a.88.88,0,0,1,.05-.15c0-.05,0-.1,0-.15a.88.88,0,0,0,.05-.15s0-.1,0-.15,0-.1.05-.15a.88.88,0,0,1,.05-.15s0-.1,0-.15a.88.88,0,0,0,.05-.15l0-.15.05-.16a1.31,1.31,0,0,1,0-.15s0-.1,0-.15a.88.88,0,0,0,0-.15s0-.1.05-.15l0-.15a.88.88,0,0,1,.05-.15s0-.1,0-.15a.88.88,0,0,0,.05-.15s0-.1.05-.15,0-.1,0-.15a.88.88,0,0,1,.05-.15s0-.1,0-.15a.88.88,0,0,0,.05-.15l0-.15a.88.88,0,0,1,.05-.15,1.42,1.42,0,0,1,0-.16s0-.09,0-.15a.66.66,0,0,0,0-.15c0-.05,0-.1.05-.15a.88.88,0,0,1,0-.15s0-.1,0-.15a.88.88,0,0,0,0-.15s0-.1.05-.15,0-.1.05-.15a.88.88,0,0,1,0-.15s0-.1,0-.15a.88.88,0,0,0,.05-.15s0-.1.05-.15l0-.15a.88.88,0,0,1,.05-.15s0-.1,0-.15a.88.88,0,0,0,.05-.15s0-.1,0-.16,0-.09.05-.15a1.31,1.31,0,0,1,.05-.15s0-.1,0-.15a.88.88,0,0,0,0-.15c0-.05,0-.1.05-.15a.88.88,0,0,1,.05-.15s0-.1,0-.15a772658012798.06,772658012798.06,0,0,1,.1-.3c0-.05,0-.1.05-.15a.88.88,0,0,1,0-.15s0-.1,0-.15a.88.88,0,0,0,0-.15s0-.1.05-.15l0-.15a.88.88,0,0,1,.05-.15c0-.06,0-.1,0-.15a1,1,0,0,0,.05-.16l0-.15s0-.1.05-.15a.88.88,0,0,1,.05-.15s0-.1,0-.15a.88.88,0,0,0,.05-.15c0-.05,0-.1,0-.15s0-.1.05-.15c2.4-7.74,3.51-18.48,3.51-30.39V2.31h-8.54Z"/><polygon class="cls-1" points="178.46 87.65 190.41 87.65 190.41 87.5 190.46 87.5 190.46 87.35 190.51 87.35 190.51 87.2 190.56 87.2 190.56 87.05 190.6 87.05 190.6 86.9 190.65 86.9 190.65 86.75 190.7 86.75 190.7 86.59 190.75 86.59 190.75 86.44 190.79 86.44 190.79 86.29 190.84 86.29 190.84 86.14 190.89 86.14 190.89 85.99 190.94 85.99 190.94 85.84 190.99 85.84 190.99 85.69 191.03 85.69 191.03 85.54 191.08 85.54 191.08 85.39 191.13 85.39 191.13 85.24 191.18 85.24 191.18 85.09 191.23 85.09 191.23 84.94 191.27 84.94 191.27 84.79 191.32 84.79 191.32 84.64 191.37 84.64 191.37 84.49 191.42 84.49 191.42 84.34 191.47 84.34 191.47 84.19 191.51 84.19 191.51 84.03 191.56 84.03 191.56 83.88 191.61 83.88 191.61 83.73 191.66 83.73 191.66 83.58 191.71 83.58 191.71 83.43 191.75 83.43 191.75 83.28 191.8 83.28 191.8 83.13 191.85 83.13 191.85 82.98 191.9 82.98 191.9 82.83 191.94 82.83 191.94 82.68 191.99 82.68 191.99 82.53 192.04 82.53 192.04 82.38 192.09 82.38 192.09 82.23 192.14 82.23 192.14 82.08 192.19 82.08 192.19 81.93 192.23 81.93 192.23 81.78 192.28 81.78 192.28 81.63 192.33 81.63 192.33 81.47 192.38 81.47 192.38 81.32 192.43 81.32 192.43 81.17 192.47 81.17 192.47 81.02 192.52 81.02 192.52 80.87 192.57 80.87 192.57 80.72 192.62 80.72 192.62 80.57 192.66 80.57 192.66 80.42 192.71 80.42 192.71 80.27 192.76 80.27 192.76 80.12 192.81 80.12 192.81 79.97 192.86 79.97 192.86 79.82 192.9 79.82 192.9 79.67 192.95 79.67 192.95 79.52 193 79.52 193 79.37 193.05 79.37 193.05 79.22 193.09 79.22 193.09 79.06 193.14 79.06 193.14 78.92 193.19 78.92 193.19 78.76 193.24 78.76 193.24 78.61 193.29 78.61 193.29 78.46 193.34 78.46 193.34 78.31 193.38 78.31 193.38 78.16 193.43 78.16 193.43 78.01 193.48 78.01 193.48 77.86 193.53 77.86 193.53 77.71 193.57 77.71 193.57 77.56 193.62 77.56 193.62 77.41 193.67 77.41 193.67 77.26 193.72 77.26 193.72 77.11 193.77 77.11 193.77 76.96 193.81 76.96 193.81 76.81 193.86 76.81 193.86 76.66 193.91 76.66 193.91 76.5 193.96 76.5 193.96 76.35 194.01 76.35 194.01 76.2 194.05 76.2 194.05 76.05 194.1 76.05 194.1 75.9 194.15 75.9 194.15 75.75 194.2 75.75 194.2 75.6 194.25 75.6 194.25 75.45 194.29 75.45 194.29 75.3 194.34 75.3 194.34 75.15 194.39 75.15 194.39 75 194.44 75 194.44 74.85 194.49 74.85 194.49 74.7 194.53 74.7 194.53 74.55 194.58 74.55 194.58 74.4 194.63 74.4 194.63 74.25 194.68 74.25 194.68 74.1 194.72 74.1 194.72 73.94 194.77 73.94 194.77 73.79 194.82 73.79 194.82 73.64 194.87 73.64 194.87 73.49 194.92 73.49 194.92 73.34 194.96 73.34 194.96 73.19 195.01 73.19 195.01 73.04 195.06 73.04 195.06 72.89 195.11 72.89 195.11 72.74 195.16 72.74 195.16 72.59 195.2 72.59 195.2 72.44 195.25 72.44 195.25 53.17 178.46 53.17 178.46 36.79 193.43 36.79 193.43 36.64 193.47 36.64 193.47 36.49 193.52 36.49 193.52 36.34 193.57 36.34 193.57 36.19 193.62 36.19 193.62 36.03 193.67 36.03 193.67 35.88 193.71 35.88 193.71 35.73 193.76 35.73 193.76 35.58 193.81 35.58 193.81 35.43 193.86 35.43 193.86 35.28 193.91 35.28 193.91 35.13 193.95 35.13 193.95 34.98 194 34.98 194 34.83 194.05 34.83 194.05 34.68 194.1 34.68 194.1 34.53 194.15 34.53 194.15 34.38 194.19 34.38 194.19 34.23 194.24 34.23 194.24 34.08 194.29 34.08 194.29 33.93 194.34 33.93 194.34 33.78 194.38 33.78 194.38 33.63 194.43 33.63 194.43 33.47 194.48 33.47 194.48 33.32 194.53 33.32 194.53 33.17 194.58 33.17 194.58 33.02 194.63 33.02 194.63 32.87 194.67 32.87 194.67 32.72 194.72 32.72 194.72 32.57 194.77 32.57 194.77 32.42 194.82 32.42 194.82 32.27 194.86 32.27 194.86 32.12 194.91 32.12 194.91 31.97 194.96 31.97 194.96 31.82 195.01 31.82 195.01 31.67 195.06 31.67 195.06 31.52 195.1 31.52 195.1 31.37 195.15 31.37 195.15 31.21 195.2 31.21 195.2 31.07 195.25 31.07 195.25 30.91 195.3 30.91 195.3 30.76 195.34 30.76 195.34 30.61 195.39 30.61 195.39 30.46 195.44 30.46 195.44 30.31 195.49 30.31 195.49 30.16 195.53 30.16 195.53 30.01 195.58 30.01 195.58 29.86 195.63 29.86 195.63 29.71 195.68 29.71 195.68 29.56 195.73 29.56 195.73 29.41 195.78 29.41 195.78 29.26 195.82 29.26 195.82 29.11 195.87 29.11 195.87 28.96 195.92 28.96 195.92 28.81 195.97 28.81 195.97 28.66 196.01 28.66 196.01 28.5 196.06 28.5 196.06 28.35 196.11 28.35 196.11 28.2 196.16 28.2 196.16 28.05 196.21 28.05 196.21 27.9 196.25 27.9 196.25 27.75 196.3 27.75 196.3 27.6 196.35 27.6 196.35 27.45 196.4 27.45 196.4 27.3 196.45 27.3 196.45 27.15 196.49 27.15 196.49 27 196.54 27 196.54 26.85 196.59 26.85 196.59 26.7 196.64 26.7 196.64 26.55 196.69 26.55 196.69 26.4 196.73 26.4 196.73 26.25 196.78 26.25 196.78 26.09 196.83 26.09 196.83 25.95 196.88 25.95 196.88 25.79 196.93 25.79 196.93 25.64 196.97 25.64 196.97 25.49 197.02 25.49 197.02 25.34 197.07 25.34 197.07 25.19 197.12 25.19 197.12 25.04 197.16 25.04 197.16 24.89 197.21 24.89 197.21 24.74 197.26 24.74 197.26 24.59 197.31 24.59 197.31 24.44 197.36 24.44 197.36 24.29 197.4 24.29 197.4 24.14 197.45 24.14 197.45 23.99 197.5 23.99 197.5 23.84 197.55 23.84 197.55 23.69 197.6 23.69 197.6 23.54 197.64 23.54 197.64 23.39 197.69 23.39 197.69 23.23 197.74 23.23 197.74 23.08 197.79 23.08 197.79 22.93 197.84 22.93 197.84 22.78 197.88 22.78 197.88 22.63 197.93 22.63 197.93 22.48 197.98 22.48 197.98 22.33 198.03 22.33 198.03 22.18 198.07 22.18 198.07 22.03 198.12 22.03 198.12 21.88 198.17 21.88 198.17 21.73 198.22 21.73 198.22 21.58 198.27 21.58 198.27 2.31 169.91 2.31 169.91 2.46 169.87 2.46 169.87 2.61 169.82 2.61 169.82 2.76 169.77 2.76 169.77 2.91 169.72 2.91 169.72 3.06 169.68 3.06 169.68 3.21 169.63 3.21 169.63 3.37 169.58 3.37 169.58 3.52 169.53 3.52 169.53 3.67 169.48 3.67 169.48 3.82 169.44 3.82 169.44 3.97 169.39 3.97 169.39 4.12 169.34 4.12 169.34 4.27 169.29 4.27 169.29 4.42 169.24 4.42 169.24 4.57 169.2 4.57 169.2 4.72 169.15 4.72 169.15 4.87 169.1 4.87 169.1 5.02 169.05 5.02 169.05 5.17 169 5.17 169 5.32 168.96 5.32 168.96 5.47 168.91 5.47 168.91 5.63 168.86 5.63 168.86 5.78 168.81 5.78 168.81 5.93 168.76 5.93 168.76 6.08 168.72 6.08 168.72 6.23 168.67 6.23 168.67 6.38 168.62 6.38 168.62 6.53 168.57 6.53 168.57 6.68 168.53 6.68 168.53 6.83 168.48 6.83 168.48 6.98 168.43 6.98 168.43 7.13 168.38 7.13 168.38 7.28 168.33 7.28 168.33 7.43 168.29 7.43 168.29 7.58 168.24 7.58 168.24 7.73 168.19 7.73 168.19 7.88 168.14 7.88 168.14 8.03 168.09 8.03 168.09 8.19 168.05 8.19 168.05 8.34 168 8.34 168 8.49 167.95 8.49 167.95 8.64 167.9 8.64 167.9 8.79 167.85 8.79 167.85 8.94 167.81 8.94 167.81 9.09 167.76 9.09 167.76 9.24 167.71 9.24 167.71 9.39 167.66 9.39 167.66 9.54 167.62 9.54 167.62 9.69 167.57 9.69 167.57 9.84 167.52 9.84 167.52 9.99 167.47 9.99 167.47 10.14 167.42 10.14 167.42 10.29 167.38 10.29 167.38 10.44 167.33 10.44 167.33 10.59 167.28 10.59 167.28 10.74 167.23 10.74 167.23 10.9 167.18 10.9 167.18 11.05 167.14 11.05 167.14 11.2 167.09 11.2 167.09 11.35 167.04 11.35 167.04 11.5 166.99 11.5 166.99 11.65 166.94 11.65 166.94 11.8 166.9 11.8 166.9 11.95 166.85 11.95 166.85 12.1 166.8 12.1 166.8 12.25 166.75 12.25 166.75 12.4 166.71 12.4 166.71 12.55 166.66 12.55 166.66 12.7 166.61 12.7 166.61 12.85 166.56 12.85 166.56 13 166.51 13 166.51 13.15 166.47 13.15 166.47 13.3 166.42 13.3 166.42 13.46 166.37 13.46 166.37 13.61 166.32 13.61 166.32 13.76 166.27 13.76 166.27 13.91 166.22 13.91 166.22 14.06 166.18 14.06 166.18 14.21 166.13 14.21 166.13 14.36 166.08 14.36 166.08 14.51 166.03 14.51 166.03 14.66 165.99 14.66 165.99 14.81 165.94 14.81 165.94 14.96 165.89 14.96 165.89 15.11 165.84 15.11 165.84 15.26 165.79 15.26 165.79 15.41 165.75 15.41 165.75 15.56 165.7 15.56 165.7 15.71 165.65 15.71 165.65 15.87 165.6 15.87 165.6 16.02 165.56 16.02 165.56 16.17 165.51 16.17 165.51 16.32 165.46 16.32 165.46 16.47 165.41 16.47 165.41 16.62 165.36 16.62 165.36 16.77 165.31 16.77 165.31 16.92 165.27 16.92 165.27 17.07 165.22 17.07 165.22 17.22 165.17 17.22 165.17 17.37 165.12 17.37 165.12 17.52 165.07 17.52 165.07 143.52 194.14 143.52 194.14 143.37 194.19 143.37 194.19 143.22 194.24 143.22 194.24 143.07 194.29 143.07 194.29 142.92 194.34 142.92 194.34 142.77 194.38 142.77 194.38 142.62 194.43 142.62 194.43 142.47 194.48 142.47 194.48 142.31 194.53 142.31 194.53 142.16 194.58 142.16 194.58 142.01 194.62 142.01 194.62 141.86 194.67 141.86 194.67 141.71 194.72 141.71 194.72 141.56 194.77 141.56 194.77 141.41 194.81 141.41 194.81 141.26 194.86 141.26 194.86 141.11 194.91 141.11 194.91 140.96 194.96 140.96 194.96 140.81 195.01 140.81 195.01 140.66 195.06 140.66 195.06 140.51 195.1 140.51 195.1 140.36 195.15 140.36 195.15 140.21 195.2 140.21 195.2 140.06 195.25 140.06 195.25 139.91 195.29 139.91 195.29 139.75 195.34 139.75 195.34 139.6 195.39 139.6 195.39 139.45 195.44 139.45 195.44 139.3 195.49 139.3 195.49 139.15 195.53 139.15 195.53 139 195.58 139 195.58 138.85 195.63 138.85 195.63 138.7 195.68 138.7 195.68 138.55 195.73 138.55 195.73 138.4 195.77 138.4 195.77 138.25 195.82 138.25 195.82 138.1 195.87 138.1 195.87 137.95 195.92 137.95 195.92 137.8 195.97 137.8 195.97 137.65 196.01 137.65 196.01 137.5 196.06 137.5 196.06 137.34 196.11 137.34 196.11 137.19 196.16 137.19 196.16 137.04 196.21 137.04 196.21 136.89 196.25 136.89 196.25 136.74 196.3 136.74 196.3 136.59 196.35 136.59 196.35 136.44 196.4 136.44 196.4 136.29 196.44 136.29 196.44 136.14 196.49 136.14 196.49 135.99 196.54 135.99 196.54 135.84 196.59 135.84 196.59 135.69 196.64 135.69 196.64 135.54 196.68 135.54 196.68 135.39 196.73 135.39 196.73 135.24 196.78 135.24 196.78 135.09 196.83 135.09 196.83 134.94 196.88 134.94 196.88 134.78 196.92 134.78 196.92 134.63 196.97 134.63 196.97 134.48 197.02 134.48 197.02 134.33 197.07 134.33 197.07 134.18 197.12 134.18 197.12 134.03 197.16 134.03 197.16 133.88 197.21 133.88 197.21 133.73 197.26 133.73 197.26 133.58 197.31 133.58 197.31 133.43 197.35 133.43 197.35 133.28 197.4 133.28 197.4 133.13 197.45 133.13 197.45 132.98 197.5 132.98 197.5 132.83 197.55 132.83 197.55 132.68 197.59 132.68 197.59 132.53 197.64 132.53 197.64 132.38 197.69 132.38 197.69 132.22 197.74 132.22 197.74 132.07 197.79 132.07 197.79 131.92 197.83 131.92 197.83 131.77 197.88 131.77 197.88 131.62 197.93 131.62 197.93 131.47 197.98 131.47 197.98 131.32 198.03 131.32 198.03 131.17 198.07 131.17 198.07 131.02 198.12 131.02 198.12 130.87 198.17 130.87 198.17 130.72 198.22 130.72 198.22 130.57 198.26 130.57 198.26 130.42 198.31 130.42 198.31 130.27 198.36 130.27 198.36 130.12 198.41 130.12 198.41 129.97 198.46 129.97 198.46 129.81 198.5 129.81 198.5 129.66 198.55 129.66 198.55 129.51 198.6 129.51 198.6 129.36 198.65 129.36 198.65 129.21 198.7 129.21 198.7 129.06 198.75 129.06 198.75 128.91 198.79 128.91 198.79 128.76 198.84 128.76 198.84 128.61 198.89 128.61 198.89 128.46 198.94 128.46 198.94 128.31 198.98 128.31 198.98 109.04 178.46 109.04 178.46 87.65"/><path class="cls-1" d="M277.88,29.26h.05v-.15H278V29h0v-.15h0v-.15h.05V28.5h.05v-.15h.05V28.2h0v-.15h.05V27.9h.05v-.15h.05V27.6h0v-.15h0V27.3h.05v-.15h.05V27h0v-.15h.05V26.7h0v-.15h.05V26.4h0v-.15h.05V26.1h.05v-.16h0v-.15h0v-.15h.05v-.15h.05v-.15h.05v-.15h0V25h0v-.15h.05v-.15h.05v-.15h0v-.15h0v-.15h.05v-.15h.05V24h.05v-.15h0v-.15h.05v-.15h.05v-.16h.05v-.15h.05v-.15h0v-.15h.05v-.15H280v-.15H280v-.15h0v-.15h0v-.15h.05V22h.05v-.15h0v-.15h.05v-.15h0V2.31H244.84v.15h0v.15h-.05v.15h-.05v.15h0v.15h-.05v.16h0v.15h-.05v.15h0v.15h-.05v.15h0V4h0v.15h0v.15h-.05v.15h-.05v.15h0v.15h0v.15H244V5H244v.15h0v.15h0v.15h0v.15h-.05v.16h0v.15h-.05v.15h0v.15h-.05v.15h0v.15h-.05v.15h-.05v.15h0V7h0v.15h-.05v.15h-.05v.15h0v.15h0v.15h0v.15h-.05V8h0v.15h0v.16h0v.15h-.05v.15h0v.15h-.05v.15h0v.15h-.05v.15h-.05v.15h0v.15h-.05v.15h0v.15h-.05V10h0v.15h-.05v.15h0v.15h0v.15h0v.15h-.05v.16h0v.15h-.05v.15h0v.15H242v.15h-.05v.15h0v.15h-.05V12h0v.15h-.05v.15h0v.15h-.05v.15h0v.15h-.05v.15h0V13h-.05v.15h-.05v.16h0v.15h0v.15h-.05v.15h-.05v.15h0v.15h0v.15h-.05v.15H241v.15h0v.15h-.05v.15h0v.08C237.9,6.71,233.33,0,227.69,0c-6.33,0-12,6.92-16,19.6a.88.88,0,0,1,0,.15c0,.06,0,.11,0,.16a.88.88,0,0,0,0,.15c0,.05,0,.1-.05.15l0,.15a.88.88,0,0,1-.05.15s0,.1,0,.15a.88.88,0,0,0-.05.15l0,.15c0,.05,0,.1-.05.15s0,.1,0,.15a915742829985.47,915742829985.47,0,0,0-.1.3c0,.05,0,.1-.05.15a.88.88,0,0,1-.05.15c0,.05,0,.1,0,.15a.75.75,0,0,0-.05.16l0,.14c0,.06,0,.11-.05.16a.88.88,0,0,1,0,.15c0,.05,0,.1,0,.15a.88.88,0,0,0,0,.15s0,.1-.05.15l0,.15a.88.88,0,0,1-.05.15c0,.05,0,.1,0,.15a.88.88,0,0,0-.05.15s0,.1-.05.15,0,.1,0,.15a.88.88,0,0,1-.05.15c0,.05,0,.1,0,.15a.88.88,0,0,0-.05.15l0,.15a.88.88,0,0,1-.05.15,1,1,0,0,1,0,.16c0,.05,0,.09,0,.15a.88.88,0,0,0,0,.15c0,.05,0,.1-.05.15a.88.88,0,0,1,0,.15c0,.05,0,.1,0,.15a.88.88,0,0,0,0,.15s0,.1-.05.15,0,.1-.05.15a.88.88,0,0,1,0,.15c0,.05,0,.1,0,.15a.88.88,0,0,0-.05.15s0,.1-.05.15l0,.15a.88.88,0,0,1-.05.15c0,.05,0,.1,0,.15a.75.75,0,0,0-.05.16l0,.15s0,.1-.05.15a.88.88,0,0,1-.05.15c0,.05,0,.1,0,.15a.88.88,0,0,0,0,.15c0,.05,0,.1-.05.15s0,.1-.05.15a.88.88,0,0,1,0,.15c0,.05,0,.1,0,.15a.88.88,0,0,0-.05.15c0,.05,0,.1-.05.15l0,.15c0,.05,0,.1,0,.15a.88.88,0,0,0,0,.15c0,.05,0,.1-.05.15l0,.15a1,1,0,0,1-.05.16s0,.09,0,.15a.66.66,0,0,0-.05.15l0,.15c0,.05,0,.1-.05.15a.88.88,0,0,1-.05.15s0,.1,0,.15a.88.88,0,0,0-.05.15c0,.05,0,.1,0,.15s0,.1-.05.15a.88.88,0,0,1,0,.15s0,.1,0,.15a.88.88,0,0,0,0,.15c0,.05,0,.1-.05.15l0,.15a1.42,1.42,0,0,1-.05.16s0,.09,0,.14a.88.88,0,0,0-.05.15l0,.16a1.31,1.31,0,0,1-.05.15.88.88,0,0,1-.05.15s0,.1,0,.15,0,.1-.05.15l0,.15a.88.88,0,0,1-.05.15s0,.1,0,.15a.88.88,0,0,0-.05.15l0,.15c0,.05,0,.1-.05.15a.88.88,0,0,1,0,.15s0,.1,0,.15a.88.88,0,0,0,0,.15c0,.05,0,.1-.05.15-3.49,11.18-5.62,26.86-5.62,46.25,0,41.8,9.4,64.92,21.17,64.92,6,0,10.91-6.16,14.86-18.3h0l.05-.14h0a.78.78,0,0,1,0-.14h0s0-.09,0-.14h0a.78.78,0,0,0,0-.14h0l.05-.14h0s0-.1,0-.15h0a.88.88,0,0,1,.05-.15h0a.88.88,0,0,0,0-.15h0a.88.88,0,0,0,.05-.15h0s0-.1.05-.15h0a.88.88,0,0,1,0-.15h0a.88.88,0,0,1,.05-.15h0a.88.88,0,0,0,.05-.15h0a.88.88,0,0,0,.05-.15h0l0-.14h0a.78.78,0,0,1,.05-.14h0a.78.78,0,0,1,0-.14h0a.78.78,0,0,0,.05-.14h0a.78.78,0,0,0,0-.14h0l.05-.14h0a.78.78,0,0,1,.05-.14h0a.78.78,0,0,1,0-.14h0a.88.88,0,0,0,0-.15h0s0-.1.05-.15h0s0-.1.05-.15h0a.88.88,0,0,1,0-.15h0s0-.1,0-.15h0a.88.88,0,0,0,.05-.15h0s0-.1.05-.15h0l0-.15h0a.88.88,0,0,1,.05-.15h0a.78.78,0,0,0,0-.14h0a.78.78,0,0,0,.05-.14h0l0-.14h0l.05-.14h0a.78.78,0,0,1,.05-.14h0a.78.78,0,0,0,.05-.14h0a.78.78,0,0,0,0-.14h0s0-.1.05-.15h0a.88.88,0,0,1,.05-.15h0a.88.88,0,0,1,0-.15h0a.88.88,0,0,0,.05-.15h0a.88.88,0,0,0,0-.15h0s0-.1.05-.15h0a.88.88,0,0,1,0-.15h0a.88.88,0,0,1,.05-.15h0a.88.88,0,0,0,0-.15h0s0-.1.05-.15h0l0-.14h0a.78.78,0,0,1,.05-.14h0a.78.78,0,0,1,.05-.14h0a.78.78,0,0,0,.05-.14h0l0-.14h0l.05-.14h0a.78.78,0,0,1,.05-.14h0s0-.1,0-.15h0a.88.88,0,0,0,.05-.15h0l0-.15h0c0-.05,0-.1.05-.15h0a.88.88,0,0,1,0-.15h0a.88.88,0,0,0,.05-.15h0a.88.88,0,0,0,0-.15h0s0-.1.05-.15h0a.88.88,0,0,1,0-.15h0a.88.88,0,0,1,.05-.15h0a.78.78,0,0,0,0-.14h0a.78.78,0,0,0,.05-.14h0l.05-.14h0a.78.78,0,0,1,0-.14h0a.78.78,0,0,1,.05-.14h0a.78.78,0,0,0,.05-.14h0a.78.78,0,0,0,.05-.14h0l0-.15h0a.88.88,0,0,1,.05-.15h0a.88.88,0,0,1,0-.15h0a.88.88,0,0,0,.05-.15h0l0-.15h0c0-.05,0-.1.05-.15h0a.88.88,0,0,1,0-.15h0s0-.1,0-.15h0a.88.88,0,0,0,0-.15h0s0-.09.05-.14h0l.05-.14h0a.78.78,0,0,1,0-.14h0a.78.78,0,0,0,0-.14h0a.78.78,0,0,0,.05-.14h0l.05-.14h0a.78.78,0,0,1,0-.14h0a.78.78,0,0,1,.05-.14h0a.88.88,0,0,0,0-.15h0a.88.88,0,0,0,.05-.15h0l0-.15h0a.88.88,0,0,1,.05-.15h0a.88.88,0,0,1,.05-.15h0a.88.88,0,0,0,.05-.15h0a.88.88,0,0,0,0-.15h0s0-.1.05-.15h0a.88.88,0,0,1,.05-.15h0a.78.78,0,0,1,0-.14h0a.78.78,0,0,0,0-.14h0l.05-.14L237.6,98.64c-2.59,7.71-5.82,12.14-9.91,12.14-7.82,0-12.77-17.34-12.77-45.66a149.54,149.54,0,0,1,1.88-25.25c1.81-3,3.91-4.62,6.2-4.62,3.66,0,6.46,3.66,8.9,10l4.52-14.06h0l.05-.15h0l0-.15h0l.05-.15h0l.05-.15h0l0-.15h0l.05-.15h0l.05-.15h0l.05-.15h0l0-.15h0l.05-.15h0l0-.15h0l.05-.15h0l0-.15h0l.05-.15h0l0-.15h0l0-.15h0l0-.15h0l.05-.15h0l.05-.15h0l0-.15h0l0-.15h0l.05-.15h0l.05-.15h0l0-.15h0l.05-.15h0l0-.15h0l.05-.15h0l0-.15h0l.05-.15h0l.05-.15h0l.05-.15h0l0-.15h0l.05-.15h0l.05-.15h0l0-.15h0l0-.15h0l.05-.15h0l.05-.15h0l0-.15h0l0-.15h0l0-.15h0l.05-.15h0l0-.15h0l.05-.15h0l0-.15h0l.05-.15h0l0-.15h0l.05-.15h0l.05-.15h0l0-.15h0l.05-.15h0l0-.15h0l.05-.15h0l0-.15h0l.05-.15h0l0-.15h0l.05-.15h0l0-.15h0l0-.15h0l0-.15h0l.05-.15h0l0-.15h0l.05-.15h0l0-.15h0l.05-.15h0l.05-.15h0l0-.15h0l.05-.15h0l0-.15h0l.05-.15h0l0-.15h0l.05-.15h0l0-.15h0l0-.15h0l0-.13V36.79h13.5V143.52H262v-.15h0v-.15h.05v-.15h0v-.15h.05v-.15h0v-.15h.05v-.16h0v-.15h.05v-.15h.05V142h0v-.15h.05v-.15h0v-.15h.05v-.15h0v-.15h.05v-.15h.05V141h0v-.15h0v-.15H263v-.15H263v-.15h.05v-.15h0v-.15h.05v-.16h.05v-.15h.05v-.15h.05v-.15h0v-.15h.05v-.15h.05V139h.05v-.15h0v-.15h.05v-.15h.05v-.15h.05v-.15h.05v-.15h0V138h.05v-.15h.05v-.15h.05v-.15h0v-.16h0v-.15h.05V137h.05v-.15h0v-.15h.05v-.15h0v-.15h.05v-.15h0v-.15h.05V136h.05v-.15h0v-.15h0v-.15h.05v-.15h.05v-.15h.05v-.15h0v-.15h0v-.16h.05v-.15h.05v-.15h0v-.15h0v-.15H265V134h.05v-.15h.05v-.15h0v-.15h.05v-.15h.05v-.15h.05v-.15h.05V133h0v-.15h.05v-.15h.05v-.15h.05v-.16h0v-.15h0v-.15h.05v-.15h.05v-.15h0v-.15h.05v-.15h0v-.15h.05v-.15H266V131h0v-.15h0v-.15h.05v-.15h.05v-.15h0v-.15h.05v-.15h0V130h.05v-.16h0v-.15h.05v-.15h.05v-.15h0v-.15h0v-.15h.05v-.15h.05v-.15h.05v-.15h0v-.15h.05v-.15h.05V36.79h8.65v-.15h.05v-.15h.05v-.15h.05v-.15h0V36h0v-.15h.05v-.15h.05v-.15h.05v-.15h0v-.15H276v-.15h.05V35h.05v-.15h.05v-.15h0v-.15h.05v-.15h.05v-.15h.05v-.15h0v-.15h0v-.15h.05v-.16h.05v-.15h0v-.15h.05v-.15h0V33h.05v-.15h0v-.15h.05v-.15h0v-.15h.05v-.15H277v-.15h0V32h.05v-.15h0v-.15h.05v-.15h0v-.15h.05v-.15h.05v-.16h0v-.15h0v-.15h.05v-.15h.05v-.15h.05v-.15h0v-.15h.05V30h.05v-.15h.05v-.15h.05v-.15h0v-.15h.05Z"/><path class="cls-1" d="M30.18,81.61s0-.1,0-.15a.88.88,0,0,0,.05-.15s0-.1.05-.15l.05-.15a.66.66,0,0,1,.05-.15c0-.06,0-.1,0-.15a1.31,1.31,0,0,0,.05-.15l0-.16.05-.15a.88.88,0,0,1,.05-.15s0-.1,0-.15a.88.88,0,0,0,.05-.15l.05-.15c0-.05,0-.1.05-.15a.88.88,0,0,1,0-.15s0-.1,0-.15a.88.88,0,0,0,0-.15s0-.1.05-.15a.88.88,0,0,1,.05-.15.88.88,0,0,1,.05-.15s0-.1,0-.15a.88.88,0,0,0,.05-.15l.05-.15a.66.66,0,0,1,0-.15c0-.06,0-.1,0-.16a.88.88,0,0,0,.05-.15.88.88,0,0,0,0-.15c0-.05,0-.1.05-.15a.88.88,0,0,1,.05-.15s0-.1,0-.15a.88.88,0,0,0,.05-.15l.05-.15c0-.05,0-.1.05-.15a.88.88,0,0,1,0-.15s0-.1,0-.15a.88.88,0,0,0,0-.15s0-.1.05-.15,0-.1.05-.15a.88.88,0,0,1,0-.15c0-.06,0-.1,0-.16a.78.78,0,0,0,0-.14l0-.16s0-.09.05-.15a.88.88,0,0,1,0-.15s0-.1,0-.15a.88.88,0,0,0,.05-.15c0-.05,0-.1,0-.15a.88.88,0,0,1,0-.15s0-.1,0-.15a4945011281932.36,4945011281932.36,0,0,1,.1-.3c0-.05,0-.1.05-.15a.88.88,0,0,1,0-.15s0-.1,0-.15a.88.88,0,0,0,.05-.15l0-.15,0-.16a.78.78,0,0,1,.05-.14c0-.06,0-.1,0-.16a.66.66,0,0,0,0-.15s0-.1.05-.15l0-.15a.88.88,0,0,1,.05-.15c0-.05,0-.1,0-.15a.88.88,0,0,0,0-.15s0-.1.05-.15,0-.1,0-.15a.88.88,0,0,1,0-.15c0-.05,0-.1,0-.15a.88.88,0,0,0,.05-.15l0-.15a12362528204836.88,12362528204836.88,0,0,0,.1-.3c0-.06,0-.1,0-.15a1,1,0,0,0,.05-.16l0-.15a.88.88,0,0,1,0-.15c0-.05,0-.1,0-.15a.88.88,0,0,0,.05-.15l0-.15s0-.1.05-.15a.88.88,0,0,1,0-.15c0-.05,0-.1,0-.15A.88.88,0,0,0,34.2,69s0-.1,0-.15,0-.1,0-.15a.88.88,0,0,1,.05-.15c0-.05,0-.1,0-.15a.88.88,0,0,0,0-.15c0-.06,0-.1.05-.15l0-.16a1.31,1.31,0,0,1,.05-.15s0-.09,0-.15a.66.66,0,0,0,0-.15s0-.1,0-.15a.88.88,0,0,1,.05-.15c0-.05,0-.1,0-.15a.88.88,0,0,0,0-.15c1.94-6.37,3.06-14.8,3.06-25.43,0-29.28-7.82-39.11-18.23-39.11H4.84v.15h0v.15h0v.15h0v.15h0v.15H4.6v.16h0v.15h0v.15h0v.15h0v.15h0V4H4.31v.15h0v.15h0v.15h0v.15h0v.15h0v.15H4V5H4v.15h0v.15H3.88v.15h0v.15h0v.16h0v.15H3.69v.15h0v.15H3.59v.15h0v.15h0v.15h0v.15H3.4V7h0v.15h0v.15H3.26v.15h0v.15h0v.15H3.11v.15h0V8H3v.15H3v.16H2.92v.15h0v.15h0v.15H2.78v.15h0v.15h0v.15h0v.15H2.59v.15h0v.15h0v.15H2.44V10h0v.15h0v.15H2.3v.15h0v.15h0v.15h0v.16H2.11v.15h0v.15H2v.15H2v.15h0v.15h0v.15H1.82V12H1.77v.15h0v.15H1.68v.15H1.63v.15h0v.15H1.53v.15h0V13H1.44v.15H1.39v.16h0v.15H1.29v.15h0v.15H1.2v.15H1.15v.15h0v.15H1.05v.15H1v.15H1v.15h0v.15H.86V15h0v.15h0v.15H.72v.15h0v.15H.62v.15h0v.16h0V16H.48v.15h0v.15h0v.15h0v.15H.29v.15h0v.15h0v.15h0v.15h0v.15h0v.15H0v126H8.54v-.15h.05v-.15h.05v-.15h0v-.15h0v-.15h0v-.15h.05v-.16h.05v-.15h0v-.15H9V142H9v-.15h.05v-.15h0v-.15h0v-.15h.05v-.15h0v-.15h.05V141h0v-.15h0v-.15h0v-.15H9.5v-.15h.05v-.15h0v-.15h0v-.16h0v-.15h.05v-.15h0v-.15h.05v-.15h0v-.15h0V139H10v-.15h0v-.15h0v-.15h0v-.15h.05v-.15h.05v-.15h0V138h0v-.15h0v-.15h.05v-.15h.05v-.16h0v-.15h0V137h0v-.15h.05v-.15h0v-.15h.05v-.15h0v-.15h.05v-.15h.05V136h0v-.15H11v-.15h0v-.15h.05v-.15h.05v-.15h0v-.15h0v-.15h0v-.16h.05v-.15h0v-.15h.05v-.15h0v-.15h0V134h.05v-.15h0v-.15h.05v-.15h0v-.15h.05v-.15h.05v-.15h0V133h.05v-.15h0v-.15H12v-.15h0v-.16h.05v-.15h.05v-.15h0v-.15h.05v-.15h0v-.15h.05v-.15h0v-.15h.05v-.15h.05V131h0v-.15h.05v-.15h0v-.15h.05v-.15h.05v-.15h0v-.15h.05V130h0v-.16h.05v-.15h0v-.15H13v-.15h.05v-.15h0v-.15h.05v-.15h0v-.15h.05v-.15h0v-.15h0v-.15h.05V97.47h1.76c6.33,0,11.76-5,14.94-15.56,0,0,0-.1.05-.15A.88.88,0,0,1,30.18,81.61Zm-16-45.79c6.82,0,10.41,5.4,10.41,20.81,0,1.93-.05,3.73-.16,5.41A7.35,7.35,0,0,1,19.34,64h-6V35.82Z"/><path class="cls-1" d="M117.83,128a.88.88,0,0,1,0-.15s0-.1,0-.15a.88.88,0,0,0,0-.15l0-.15s0-.1,0-.15a.88.88,0,0,1,.05-.15s0-.1,0-.15a.88.88,0,0,0,0-.15c0-.05,0-.1.05-.15l0-.15a1,1,0,0,1,0-.16s0-.1,0-.15,0-.1,0-.15l0-.15a6181264102406.79,6181264102406.79,0,0,0,.1-.3s0-.1,0-.15l0-.15,0-.15a.88.88,0,0,1,.05-.15s0-.1,0-.15a.88.88,0,0,0,0-.15c0-.05,0-.1.05-.15s0-.1,0-.15a.88.88,0,0,1,0-.15s0-.1,0-.15a.75.75,0,0,0,.05-.16s0-.09,0-.14,0-.11,0-.16a.88.88,0,0,1,0-.15s0-.1,0-.15a.88.88,0,0,0,0-.15l0-.15s0-.1,0-.15a.88.88,0,0,1,.05-.15s0-.1,0-.15a.88.88,0,0,0,0-.15s0-.1.05-.15a.88.88,0,0,1,0-.15s0-.1,0-.15a.88.88,0,0,0,.05-.15c0-.05,0-.1,0-.15l0-.15a.88.88,0,0,1,0-.15s0-.1,0-.15a1,1,0,0,0,0-.16l0-.15,0-.15a.88.88,0,0,1,.05-.15s0-.1,0-.15a.88.88,0,0,0,0-.15s0-.1,0-.15,0-.1.05-.15a.88.88,0,0,1,0-.15s0-.1,0-.15a.88.88,0,0,0,.05-.15l0-.15,0-.15a.88.88,0,0,1,0-.15s0-.1,0-.15l0-.15s0-.11,0-.16l0-.15a.88.88,0,0,1,.05-.15s0-.1,0-.15l0-.15s0-.1.05-.15a.88.88,0,0,1,0-.15s0-.1,0-.15a.88.88,0,0,0,.05-.15s0-.1,0-.15l0-.15a.88.88,0,0,1,0-.15s0-.1,0-.15a.88.88,0,0,0,0-.15l0-.15,0-.15a.88.88,0,0,1,0-.15s0-.1,0-.15a1.42,1.42,0,0,0,0-.16s0-.1,0-.15,0-.1.05-.15a.88.88,0,0,1,0-.15s0-.1,0-.15a.88.88,0,0,0,.05-.15l0-.15,0-.15s0-.1,0-.15a.88.88,0,0,0,0-.15l0-.15,0-.15a.88.88,0,0,1,0-.15s0-.1,0-.15a.88.88,0,0,0,0-.15l0-.15s0-.11.05-.16a.88.88,0,0,1,0-.15s0-.1,0-.15a.88.88,0,0,0,0-.15c3.67-11.37,5.79-27.86,5.79-48.32C128.36,24.08,119.89,0,107.62,0c-6.16,0-11.36,6.07-15,17.24a1.31,1.31,0,0,0,0,.15c0,.05,0,.11,0,.16s0,.1-.05.15a.88.88,0,0,1,0,.15s0,.1,0,.15a.88.88,0,0,0-.05.15c0,.05,0,.1,0,.15l0,.15a.88.88,0,0,1,0,.15s0,.1,0,.15a.88.88,0,0,0,0,.15l0,.15,0,.15a.88.88,0,0,1,0,.15s0,.1,0,.15l0,.15c0,.05,0,.11,0,.16s0,.1-.05.14,0,.11,0,.16a.88.88,0,0,0,0,.15s0,.1-.05.15l0,.15a.88.88,0,0,1,0,.15c0,.05,0,.1,0,.15a.88.88,0,0,0,0,.15l0,.15,0,.15a.88.88,0,0,1,0,.15c0,.05,0,.1,0,.15a.88.88,0,0,0,0,.15l0,.15c0,.05,0,.1-.05.15a.88.88,0,0,1,0,.15c0,.05,0,.1,0,.15a1,1,0,0,0,0,.16s0,.1-.05.15l0,.15a.88.88,0,0,1,0,.15c0,.05,0,.1,0,.15l0,.15,0,.15,0,.15c0,.05,0,.1,0,.15a.88.88,0,0,0,0,.15l0,.15,0,.15s0,.1-.05.15,0,.1,0,.15a.88.88,0,0,0,0,.15c0,.05,0,.1-.05.15s0,.11,0,.16a.78.78,0,0,1,0,.14l0,.16a.88.88,0,0,0,0,.15l0,.15,0,.15a.88.88,0,0,1,0,.15c0,.05,0,.1,0,.15a.88.88,0,0,0,0,.15l0,.15s0,.1,0,.15a.88.88,0,0,1-.05.15c0,.05,0,.1,0,.15s0,.1,0,.15,0,.1-.05.15l0,.15a.66.66,0,0,1,0,.15l0,.16s0,.1,0,.15,0,.1,0,.15l0,.15s0,.1,0,.15a.88.88,0,0,0,0,.15l0,.15,0,.15a.88.88,0,0,1-.05.15s0,.1,0,.15a.88.88,0,0,0,0,.15c0,.05,0,.1-.05.15s0,.1,0,.15a.88.88,0,0,1,0,.15s0,.1,0,.15a1,1,0,0,0-.05.16s0,.1,0,.14,0,.11,0,.15a1,1,0,0,1,0,.16s0,.1,0,.15a.88.88,0,0,0,0,.15l0,.15c0,.05,0,.1,0,.15s0,.1,0,.15a.88.88,0,0,0,0,.15l0,.15c0,.05,0,.1-.05.15l0,.15c0,.05,0,.1,0,.15a.88.88,0,0,0-.05.15s0,.1,0,.15l0,.15a.88.88,0,0,1,0,.15C84.16,43.41,82,59.6,82,79.94c0,40.85,8.47,65.89,20.75,65.89,6.15,0,11.35-6.3,15-17.72Zm-15-92.71c7.25,0,12,16.76,12,44.69a167.54,167.54,0,0,1-1.91,27.13c-1.54,2.42-3.29,3.71-5.23,3.71-7.32,0-12-17.92-12-46A163.88,163.88,0,0,1,97.39,39C99,36.56,100.77,35.25,102.78,35.25Z"/><path class="cls-1" d="M308.85,130.41s0-.1,0-.15a.88.88,0,0,0,.05-.15L309,130c0-.05,0-.1.05-.15a1.42,1.42,0,0,1,0-.16c0-.05,0-.1,0-.15a.66.66,0,0,0,.05-.15s0-.1.05-.15,0-.1,0-.15a.88.88,0,0,1,.05-.15c0-.05,0-.1,0-.15a.88.88,0,0,0,.05-.15s0-.1.05-.15a555619245160.81,555619245160.81,0,0,1,.1-.3c0-.05,0-.1,0-.15a.88.88,0,0,0,.05-.15s0-.1,0-.15a.88.88,0,0,1,.05-.15s0-.1,0-.15a.75.75,0,0,0,.05-.16l0-.14s0-.1.05-.15a1,1,0,0,1,.05-.16c0-.05,0-.1,0-.15a.88.88,0,0,0,0-.15s0-.1.05-.15,0-.1.05-.15a.88.88,0,0,1,.05-.15c0-.05,0-.1,0-.15a.88.88,0,0,0,.05-.15s0-.1.05-.15l.05-.15a.88.88,0,0,1,.05-.15c0-.05,0-.1,0-.15a.88.88,0,0,0,.05-.15l.05-.15s0-.1.05-.15a.88.88,0,0,1,.05-.15c0-.05,0-.1,0-.15a1.42,1.42,0,0,0,.05-.16s0-.1.05-.15a.88.88,0,0,1,.05-.15c0-.05,0-.1,0-.15a5494456979924.4,5494456979924.4,0,0,1,.1-.3s0-.1.05-.15a.88.88,0,0,1,0-.15c0-.05,0-.1,0-.15a.88.88,0,0,0,.05-.15s0-.1.05-.15,0-.1,0-.15a.88.88,0,0,1,.05-.15c0-.05,0-.1,0-.15a.88.88,0,0,0,.05-.15s0-.1,0-.15,0-.11.05-.16a.88.88,0,0,1,.05-.15s0-.1,0-.15a.88.88,0,0,0,.05-.15c0-.05,0-.1,0-.15s0-.1.05-.15a.88.88,0,0,1,.05-.15s0-.1,0-.15a.88.88,0,0,0,0-.15c0-.05,0-.1.05-.15a.88.88,0,0,1,.05-.15s0-.1,0-.15a.88.88,0,0,0,0-.15s0-.1.05-.15,0-.1.05-.15a1.42,1.42,0,0,1,.05-.16s0-.09,0-.14a1.42,1.42,0,0,0,.05-.16c0-.05,0-.1.05-.15l.05-.15a.88.88,0,0,1,.05-.15s0-.1,0-.15a.88.88,0,0,0,.05-.15l.05-.15s0-.1.05-.15a.88.88,0,0,1,0-.15s0-.1,0-.15a.88.88,0,0,0,.05-.15c0-.05,0-.1.05-.15s0-.1.05-.15a.88.88,0,0,1,0-.15s0-.1,0-.15a.88.88,0,0,0,.05-.15c0-.05,0-.1.05-.16a1.31,1.31,0,0,1,0-.15.88.88,0,0,1,.05-.15s0-.1,0-.15,0-.1.05-.15,0-.1,0-.15a.88.88,0,0,1,.05-.15s0-.1,0-.15a.88.88,0,0,0,.05-.15c0-.05,0-.1,0-.15a77,77,0,0,0,3-22.45c0-18.3-3.88-27.74-9.48-34.1L300.83,52c-3.69-4.22-7.05-7.58-7.36-16.2a4.75,4.75,0,0,1,2.3-.57c3.59,0,7,3.85,10,10.59l.05-.15h0l0-.15h0l0-.15h0l.05-.15h0l.05-.15h0l.05-.15h0l0-.15h0l.05-.15h0l.05-.16h0l.05-.16h0l0-.16h0l0-.16h0l.05-.16h0l.05-.15h0l.05-.15h0l0-.15h0l0-.15h0l.05-.15h0l.05-.15h0l0-.15h0l0-.15h0l0-.15h0l.05-.15h0l0-.15h0l.05-.15h0l0-.16h0l0-.16h0l0-.16h0l.05-.16h0l.05-.16h0l0-.15h0l0-.15h0l.05-.15h0l.05-.15h0l.05-.15h0l0-.15h0l0-.15h0l.05-.15h0l.05-.15h0l.05-.15h0l0-.15h0l.05-.15h0l.05-.16h0l.05-.16h0l0-.16h0l0-.16h0l.05-.16h0l.05-.15h0l.05-.15h0l0-.15h0l0-.15h0l.05-.15h0l.05-.15h0l0-.15h0l0-.15h0l0-.15h0l.05-.15h0l0-.15h0l.05-.15h0l0-.16h0l.05-.16h0l.05-.16h0l0-.16h0l.05-.16h0l0-.15h0l.05-.15h0l0-.15h0l.05-.15h0l0-.15h0l0-.15h0l0-.15h0l.05-.15h0l.05-.15h0l0-.15h0l0-.15h0l.05-.16h0l.05-.16h0l.05-.16h0l0-.16h0l0-.16h0l.05-.15h0l.05-.15h0l.05-.15h0l0-.15h0l.05-.15h0l.05-.15h0l.05-.15h0l.05-.15h0l0-.15h0l.05-.15h0l.05-.15h0l.05-.15h0l0-.16h0l0-.16h0l.05-.16h0l.05-.16h0l0-.16h0l0-.15h0l0-.15h0l.05-.15h0l0-.15h0l4.59-15C311.52,6.16,306.28,0,300.61,0c-5.47,0-10,5.54-12.81,14.29a.88.88,0,0,0-.05.15c0,.05,0,.11-.05.16s0,.1-.05.15a.88.88,0,0,1,0,.15s0,.1,0,.15a.88.88,0,0,0-.05.15c0,.05,0,.1-.05.15l0,.15a.88.88,0,0,1-.05.15s0,.1,0,.15a.88.88,0,0,0-.05.15c0,.05,0,.1,0,.15s0,.1-.05.15a.88.88,0,0,1-.05.15c0,.05,0,.1,0,.15a.88.88,0,0,0-.05.15c0,.05,0,.1,0,.15s0,.1-.05.15a1,1,0,0,1-.05.16c0,.05,0,.1,0,.15a.88.88,0,0,0,0,.15c0,.05,0,.1-.05.15l-.05.15s0,.1,0,.15a.88.88,0,0,0,0,.15c0,.05,0,.1-.05.15s0,.1-.05.15a.88.88,0,0,1-.05.15s0,.1,0,.15a.88.88,0,0,0-.05.15c0,.05,0,.1-.05.15l-.05.15a.88.88,0,0,1-.05.15s0,.1,0,.15a.75.75,0,0,0-.05.16s0,.09-.05.14,0,.11-.05.16a.88.88,0,0,1,0,.15c0,.05,0,.1,0,.15a.88.88,0,0,0-.05.15c0,.05,0,.1-.05.15s0,.1-.05.15a.88.88,0,0,1,0,.15c0,.05,0,.1,0,.15a.88.88,0,0,0-.05.15c0,.05,0,.1-.05.15s0,.1,0,.15,0,.1,0,.15a.88.88,0,0,0-.05.15s0,.1-.05.15,0,.1,0,.15,0,.1-.05.15,0,.11,0,.16a.88.88,0,0,0-.05.15c0,.05,0,.1,0,.15s0,.1-.05.15a.88.88,0,0,1-.05.15c0,.05,0,.1,0,.15a.88.88,0,0,0,0,.15c0,.05,0,.1-.05.15s0,.1-.05.15a.88.88,0,0,1-.05.15c0,.05,0,.1,0,.15a.88.88,0,0,0,0,.15c0,.05,0,.1-.05.15l-.05.15a.88.88,0,0,1-.05.15c0,.05,0,.1,0,.15a.88.88,0,0,0-.05.15l-.05.15c0,.05,0,.11-.05.16a.88.88,0,0,1-.05.15c0,.05,0,.1,0,.15s0,.1-.05.15,0,.1-.05.15a.88.88,0,0,1-.05.15c0,.05,0,.1,0,.15a.88.88,0,0,0-.05.15l-.05.15s0,.1-.05.15a.88.88,0,0,1,0,.15c0,.05,0,.1,0,.15a.88.88,0,0,0-.05.15c0,.05,0,.1-.05.15s0,.1,0,.15a.88.88,0,0,1-.05.15c0,.05,0,.1,0,.15a1.42,1.42,0,0,0-.05.16c0,.05,0,.1-.05.15s0,.1,0,.15a.88.88,0,0,1-.05.15c0,.05,0,.1,0,.15a.88.88,0,0,0-.05.15l0,.15c0,.05,0,.1-.05.15a.88.88,0,0,1-.05.15c0,.05,0,.1,0,.15a.88.88,0,0,0,0,.15c0,.05,0,.1-.05.15s0,.1-.05.15A72.27,72.27,0,0,0,280,51c0,18.31,4.81,28.13,9.48,33.33l6.38,7.52c4.21,4.78,7.21,8,7.25,17.9a5.55,5.55,0,0,1-3.19,1c-4.53,0-9.19-5-12.57-13.68l0,.15h0l-.05.15h0l-.05.15h0l-.05.15h0l0,.15h0l0,.16h0l-.05.16h0l-.05.16h0l-.05.16h0l0,.16h0l-.05.16h0l-.05.15h0l-.05.15h0l0,.15h0l0,.15h0l-.05.15h0l-.05.15h0l0,.15h0l-.05.15h0l0,.15h0l-.05.15h0l-.05.15h0l0,.16h0l0,.16h0l0,.16h0l-.05.16h0l0,.16h0l-.05.15h0l0,.15h0l0,.15h0l0,.15h0l-.05.15h0l-.05.15h0l0,.15h0l0,.15h0l-.05.15h0l-.05.15h0l-.05.15h0l0,.15h0l-.05.16h0l-.05.16h0l-.05.16h0l-.05.16h0l0,.16h0l-.05.15h0l-.05.15h0l-.05.15h0l0,.15h0l0,.15h0l-.05.15h0l-.05.15h0l-.05.15h0l0,.15h0l0,.15h0l-.05.15h0l-.05.15h0l0,.16h0l0,.16h0l0,.16h0l-.05.16h0l0,.16h0l-.05.15h0l0,.15h0l-.05.15h0l0,.15h0l-.05.15h0l-.05.15h0l0,.15h0l-.05.15h0l0,.15h0l-.05.15h0l0,.15h0l0,.15h0l0,.16h0l-.05.16h0l-.05.16h0l0,.16h0l0,.16h0l-.05.15h0l-.05.15h0l-.05.15h0l0,.15h0l0,.15h0l-.05.15h0l-.05.15h0l-.05.15h0l0,.15h0l-.05.15h0l-.05.15h0l-.05.16h0l0,.16h0l0,.16h0l-.05.16h0l-.05.16h0l-.05.16h0l0,.15h0l0,.15h0l-.05.15h0l-.05.15h0l0,.15h0l0,.15h0l-4.59,15c4.45,12.13,10.48,18.49,16.94,18.49s11.11-6.06,14-15.27A.88.88,0,0,1,308.85,130.41Z"/><path class="cls-2" d="M4.84,2.31H19.7c10.41,0,18.23,9.83,18.23,39.11,0,28.13-7.82,40.84-17.95,40.84h-6.6v46.05H4.84ZM19.34,64c6.89,0,10.12-7.32,10.12-22.54,0-15.41-3.59-20.81-10.41-20.81H13.38V64Z"/><path class="cls-2" d="M46.68,2.31H62.55c9.83,0,17.37,9.25,17.37,37.57,0,19.07-3.67,30.82-9.26,36l11.12,52.4H72.23l-10-48.94h-7v48.94H46.68Zm15,58.76c6.39,0,9.84-7.13,9.84-21.19,0-14.26-3.45-19.27-9.84-19.27H55.22V61.07Z"/><path class="cls-2" d="M86.87,64.73C86.87,24.08,95.34,0,107.62,0s20.74,24.08,20.74,64.73c0,40.85-8.47,65.89-20.74,65.89S86.87,105.58,86.87,64.73Zm32.73,0c0-27.93-4.73-44.69-12-44.69s-12,16.76-12,44.69c0,28.13,4.67,46.05,12,46.05S119.6,92.86,119.6,64.73Z"/><path class="cls-2" d="M130.15,108.66l5.53-10c1.65,8.09,4.16,12.14,7.18,12.14,4.59,0,6.82-6.55,6.82-24.86V2.31h8.54V87.85c0,23.7-4.38,42.77-14.64,42.77C137.4,130.62,133,123.69,130.15,108.66Z"/><path class="cls-2" d="M169.92,2.31h28.35V21.58H178.46V53.17h16.79V72.44H178.46V109H199v19.27H169.92Z"/><path class="cls-2" d="M206.16,65.7c0-41.23,9.62-65.7,21.53-65.7,5.89,0,10.62,7.32,13.57,16l-4.52,14.06c-2.44-6.35-5.24-10-8.9-10-7.47,0-12.92,17-12.92,45.08,0,28.32,5,45.66,12.77,45.66,4.09,0,7.32-4.43,9.91-12.14l4.59,13.68c-3.95,12.14-8.83,18.3-14.86,18.3C215.56,130.62,206.16,107.5,206.16,65.7Z"/><path class="cls-2" d="M258.34,21.58h-13.5V2.31h35.53V21.58H266.88V128.31h-8.54Z"/><path class="cls-2" d="M282.74,112.13l4.59-15c3.38,8.67,8,13.68,12.57,13.68,5.16,0,8-6.36,8-16,0-10-3-13.3-7.25-18.11l-6.38-7.52c-4.67-5.2-9.48-15-9.48-33.33C284.82,15.6,291.43,0,300.61,0c5.67,0,10.91,6.16,14.57,15.6l-4.59,15c-2.94-6.74-6.39-10.59-10-10.59-4.38,0-7.18,5.39-7.18,14.45,0,9.63,3.52,13.1,7.4,17.53L307.14,59c5.6,6.36,9.48,15.8,9.48,34.1,0,20.42-6.32,37.57-16.94,37.57C293.22,130.62,287.19,124.26,282.74,112.13Z"/><text/></svg>